<svg xmlns="http://www.w3.org/2000/svg" xmlns:xlink="http://www.w3.org/1999/xlink" viewBox="0 0 236 75"><defs><path id="a" d="M0 0h236v75H0z"/></defs><clipPath id="b"><use xlink:href="#a" overflow="visible"/></clipPath><g clip-path="url(#b)"><path d="M38.7.7H26.4v62.5H37V51.9h1.2C47.5 51.9 51 48 51 38.4V12C51 4.2 47.2.7 38.7.7zm1.8 39v3.9c0 2.7-.7 3.4-2.9 3.4h-.7V5.3h.4c2.4 0 3.1.8 3.1 3.5v30.9zM6.7 67.9c0-.1-.1-.2-.2-.2-.2 0-1.4.6-1.9.9-.4.2-.5.3-.6.3-.4 0-1.4-.7-1.4-1 0-.2.3-.5.4-.5.2.3.6.4.8.4h.1s.4-.1.9-.3c.4-.1.9-.3 1.1-.3.1 0 .3-.1.4-.2l.1-.1c.2-.1.3-.2.4-.2.5 0 2 .7 2 1.2 0 .2-.2.3-.4.5-.1.1-.2.2-.3.4-.4.7-.9 1.4-1.4 2 1.6.4 2.8 1.1 2.8 2.1 0 .5-.2 1.1-.9 1.1-.3 0-.6-.2-.7-.5-.1-.2-.2-.5-.2-.7-.4-1.2-.8-1.5-1.1-1.7C4.1 73.9.9 74.3.8 74.3H.7s.1-.1.3-.2c2.2-.9 4.8-3.7 5.7-6.2zm8.3 1.7c-.1.1-.1.2-.2.3-1.6 3.2-4.8 3.5-5 3.5h-.1s.1-.1.2-.1c2.1-.7 3.5-3.4 3.5-4.2 0-.3-.2-.5-.5-.5h-.2c0-.1.5-.5.9-.5s1.6.7 1.6 1.1c0 .1-.1.2-.2.3v.1zm3.2 2.4c0-.2-.1-.5-.2-.8-.4-1.6-1.3-2.5-2.3-3.1-.1 0-.1-.1-.1-.1h.1c.2 0 4.2 1.2 4.2 3.4 0 .9-.6 1.3-.9 1.3-.2 0-.6-.1-.8-.7zm.7-3.7c-.6 0-1-.5-1-1s.4-1 1-1 1 .5 1 1-.5 1-1 1zm0-1.7c-.4 0-.7.3-.7.7s.3.7.7.7c.4 0 .7-.3.7-.7s-.3-.7-.7-.7zm7.6 2.6c0 .1-.1.2-.1.4V71c0 .7 0 1.4.1 1.9 0 .2.1.7.1.8v.2c0 .2-.1.8-.7.8-.5 0-.8-1.3-.8-1.6v-.2c0-.1.1-.2.1-.3.1-.6.2-1.4.2-2.3v-.8c-2.6 2.2-4.6 2.6-4.7 2.6h-.1s0-.1.1-.1c1.9-.9 5.5-4.7 5.5-5.9 0-.3-.2-.5-.4-.6h-.1l.1-.1c.3-.2.5-.2.7-.2.5 0 1.8.9 1.8 1.3 0 .2-.1.3-.4.5h-.2c-.5.6-1 1.1-1.5 1.7.1.1.3.3.3.5zm7.9-3c0-.1.1-.1.2-.1h.2c.4 0 2 .7 2 1.2 0 .2-.2.3-.3.5-.1.1-.2.2-.2.3-2.2 5.7-6.8 6.5-7.2 6.5H29s.1-.1.2-.1c3.7-1.3 5.4-6.6 5.4-7 0-.1-.2-.2-.3-.2-.3 0-1.6.5-2.9 1-.4.2-.6.3-.8.3-.4 0-1.4-.7-1.4-1 0-.1.1-.4.4-.6h.1c.2.3.5.4.8.4.4 0 .7-.1 3.2-.6.1 0 .2-.1.3-.2l.4-.4zm8 2.3c.2 0 1.5.6 1.5 1.1v.2c-.1.2-.6.2-.8.3-.4.2-1.2.6-1.7.8 0 .1-.1.1-.1.2-.5 3.4-3.8 3.9-3.8 3.9h-.1s.1-.1.3-.2c2.2-.9 2.5-3.3 2.5-3.8 0-.3-.1-.5-.2-.5s-.2 0-.2-.1c0-.2.4-.4.6-.4.3 0 .7.3.9.4l.2.2c.4-.4.7-.8.9-1 0 0-.1-.2-.2-.2-.2 0-2 .3-2.8.8-.3.1-.5.2-.7.2-.3 0-1.1-.4-1.1-.8 0-.3.3-.5.5-.5 0 0 .1 0 .1.1.1.2.3.2.5.2h.3c1.1-.2 2.1-.4 3-.4 0-.3.1-.5.4-.5zm5.3 5.8c-.7-1.3-2-2.2-3-2.7-.1 0-.2-.1-.2-.2h.3c.5.1 4.6.6 4.6 2.4 0 .3-.2 1-.9 1-.3 0-.6-.2-.8-.5zm-3-5.8h.8c.6 0 2.5.1 2.5 1.3 0 .4-.3.8-.8.8-.3 0-.5-.2-.7-.4-.3-.5-.8-1.1-1.6-1.5l-.2-.2zm3.8-.6c-.3 0-.5-.1-.7-.3-1.2-1.1-2.3-1.4-2.8-1.4.2-.1 1.1-.3 1.9-.3.5 0 2.3 0 2.3 1.2 0 .6-.4.8-.7.8zm2.2 1.8l.1-.1.1-.1c.1-.1.1-.6.1-1 0-1.3-.2-1.8-.8-1.8-.1 0-.1 0-.1-.1 0-.2.5-.6.7-.6.4 0 1.1.4 1.2.4.2.1.3.2.3.4s-.1.3-.1.5c0 .1-.1.2-.1.3v3.2c0 .3-.1.5-.2.6-.1.1-.2.2-.4.2-.7-.1-.8-1.7-.8-1.9zm4.4-2.7c-.1.4-.1 1.8-.2 2.3v1.3c-.6 3.9-4.6 4.5-4.6 4.5-.1 0 0-.1.2-.2 1.3-.6 2.6-1.8 3-4.1 0-.2.2-1.6.2-2.8 0-1.4-.1-1.8-.6-1.9H53c0-.1.5-.6.8-.6.2 0 1.5.4 1.5.9v.1c0 .2-.1.3-.2.5zm8.2 2.6c.9 0 2.2.1 2.2.6 0 .4-1 .6-1.6.6h-1.6c-1.2 0-2.3 0-3.4.2-.3 0-.7.2-1 .2-.6 0-1.8-.9-1.8-1.5 0-.1 0-.2.1-.2l.1-.1h.1v.2c.2.4 1.4.5 1.9.5 1.8 0 3.4-.2 4.8-.2l.2-.3zM97.4.6l24.4.1v4.8H108l-.3 57.6-10.5-.1.2-62.4zm84.2.1h10.5v62.5h-10.5V.7zm13.6 0h10.5v57.8h9.1v4.7h-19.6V.7z" fill="#231815"/><path d="M66.1.7L63.5 19 60.5.7H50l8 38.8v23.7h10.5V39.5L76.7.7H66.1zm159.4 0L222.9 19l-3-18.3h-10.6l8 38.8v23.7h10.5V39.5L236 .7h-10.5zm-60 0l-3.4 21.7L158.7.7h-13.5v62.7h8.8V32.2l4.2 31.2h7.9l4.2-31.2v31.2h8.8V.7h-13.6z" fill="#231815"/><path d="M83.9 35.8l9.6-9.5 3.3 3.2-9.6 9.5 9.6 9.5-3.3 3.2-9.6-9.5-9.6 9.5-3.3-3.2 9.6-9.5-9.6-9.5 3.3-3.2 9.6 9.5z" fill="#727171"/><path d="M138 46.9h-14.4v4.8H138v-4.8zm-14.5-17.4h-16.2v4.8h16.2v-4.8z" fill="#231815"/><path d="M136.6.7H125l-8.8 62.7h10.6l1.4-8.6 1.5-12.5 1.2-7.4 1.1 6.4.2 1 .5 3.2-.1-.5.2 1.6 2.2 16.9h10.6l-9-62.8zM24.5 22.6V12.5C24.5 4.4 20.2 0 12.3 0 4.4 0 0 4.6 0 12.2v6.5c0 2.9.1 5.7 2.7 9.1l9.5 12.6c1.2 1.5 1.8 2.9 1.8 5V57c0 1-.8 1.8-1.8 1.8s-1.8-.8-1.8-1.8V39.5H0v11.6c0 8.7 4.2 13 12.3 13 8.1 0 12.3-4.3 12.3-12.1v-7.2c0-3.9 0-6.9-2.6-10.2l-10.1-13c-1-1.3-1.3-2.6-1.3-4.4v-10c0-1 .8-1.8 1.8-1.8s1.8.8 1.8 1.8v15.4h10.3z" fill="#231815"/></g></svg>