<svg xmlns="http://www.w3.org/2000/svg" xmlns:xlink="http://www.w3.org/1999/xlink" viewBox="0 0 472 121.2"><defs><path id="a" d="M0 0h472v121.2H0z"/></defs><clipPath id="b"><use xlink:href="#a" overflow="visible"/></clipPath><g clip-path="url(#b)" fill="#fff"><path d="M14.7 108.2c0-.1-.2-.3-.4-.3-.4 0-2.6 1.1-3.5 1.7-.7.5-1 .5-1.2.5-.7 0-2.6-1.3-2.6-1.9 0-.3.6-1 .8-1l.1.1c.3.6 1.2.7 1.4.7h.2c.1 0 .8-.2 1.6-.5.8-.2 1.7-.5 2-.6.3-.1.5-.2.7-.4l.1-.1.1-.1s.1 0 .1-.1c.3-.2.5-.4.7-.4.9 0 3.6 1.4 3.6 2.3 0 .4-.3.6-.8.9-.2.1-.3.3-.5.7-.8 1.4-1.6 2.6-2.6 3.7 2.8.8 5.1 2 5.1 3.8 0 .8-.4 2-1.6 2-.6 0-1.1-.4-1.3-.9-.2-.4-.3-.9-.4-1.3-.7-2.1-1.5-2.8-2-3.2-4.6 5.1-10.4 5.8-10.6 5.8h-.1s.2-.2.5-.3c4.2-1.4 8.9-6.5 10.6-11.1zm15.1 3c-.1.2-.2.3-.3.5-2.9 5.9-8.8 6.5-9.1 6.5h-.2c0-.1.2-.2.3-.2 3.8-1.3 6.5-6.3 6.5-7.7 0-.5-.4-.9-.8-.9-.2 0-.3 0-.3-.1s.9-.9 1.6-.9 2.9 1.4 2.9 2.1c0 .2-.1.4-.3.6l-.3.1zm5.9 4.4c-.1-.3-.2-.8-.3-1.4-.8-2.9-2.3-4.6-4.1-5.6-.2-.1-.2-.2-.2-.2v-.1h.2c.4 0 7.7 2.2 7.7 6.3 0 1.6-1 2.4-1.7 2.4-.5 0-1.3-.3-1.6-1.4zm1.2-6.6c-1 0-1.9-.8-1.9-1.9 0-1 .8-1.9 1.9-1.9 1.1 0 1.9.8 1.9 1.9 0 1-.8 1.9-1.9 1.9zm0-3.2c-.7 0-1.3.6-1.3 1.3s.6 1.3 1.3 1.3 1.3-.6 1.3-1.3-.5-1.3-1.3-1.3zm14 4.7c0 .2-.1.4-.2.7 0 .4-.1 1.5-.1 2.6 0 1.2 0 2.7.1 3.6.1.5.1 1.2.1 1.5v.3c-.1.4-.2 1.5-1.2 1.5-.8 0-1.5-2.4-1.5-3v-.4c0-.2.1-.3.2-.5.2-1.1.3-2.6.3-4.3v-1.4c-4.8 4.1-8.5 4.8-8.5 4.8H40s.1-.1.3-.2c3.4-1.6 10-8.6 10-10.9 0-.5-.3-.8-.8-1h-.2s0-.1.1-.1l.2-.1c.5-.3.8-.5 1.2-.5.8 0 3.2 1.6 3.2 2.5 0 .4-.2.6-.7 1l-.2.1c-.9 1.1-1.8 2.1-2.8 3 .3.1.6.4.6.8zm14.4-5.4l.3-.3c.1 0 .2-.1.3-.1.7 0 3.7 1.3 3.7 2.2 0 .3-.3.6-.6.9-.2.2-.3.3-.4.5-3.9 10.5-12.5 11.9-13.1 11.9h-.1s.1-.1.4-.2c6.7-2.4 9.9-12.2 9.9-12.8 0-.2-.3-.4-.5-.4-.5 0-3 .9-5.2 1.9-.8.4-1.1.5-1.5.5-.7 0-2.5-1.4-2.5-1.9 0-.2.2-.8.7-1.1l.1-.1h.1s.1 0 .1.1c.3.5.9.7 1.5.7.7 0 1.4-.1 5.9-1.1l.6-.3.3-.4zm14.6 4.1c.4 0 2.8 1.1 2.8 2 0 .1 0 .2-.1.3-.2.4-1.1.4-1.4.6-.8.5-2.1 1.1-3.1 1.5-.1.1-.2.3-.2.4-.9 6.2-6.9 7.1-7 7.1-.1 0-.2 0-.2-.1s.2-.2.5-.3c4-1.7 4.6-6.1 4.6-7 0-.6-.2-.9-.4-.9s-.3-.1-.3-.2c0-.3.7-.8 1.2-.8.6 0 1.3.5 1.6.7l.3.3c.7-.7 1.3-1.4 1.6-1.9 0 0-.1-.3-.3-.3-.3 0-3.6.6-5.1 1.4-.5.2-.9.4-1.2.4-.6 0-2-.8-2-1.4 0-.5.6-1 .8-1 .1 0 .2.1.2.1.1.4.5.4.8.4h.5c2.1-.3 3.8-.7 5.4-.8.4-.1.6-.4 1-.5zm10.3 10.6c-1.2-2.4-3.6-4.1-5.5-5-.1-.1-.4-.2-.4-.3h.5c1 .1 8.5 1.1 8.5 4.5 0 .6-.3 1.9-1.6 1.9-.6 0-1.1-.4-1.5-1.1zm-5.5-10.6s.3 0 .4-.1c.3 0 .7-.1 1.1-.1 1.1 0 4.5.2 4.5 2.4 0 .7-.6 1.4-1.4 1.4-.5 0-1-.4-1.2-.7-.6-.9-1.5-2.1-3-2.7-.1-.1-.2-.1-.2-.1-.1 0-.2 0-.2-.1zm6.9-1c-.5 0-.9-.2-1.2-.5-2.1-2-4.2-2.5-5.1-2.5-.1 0-.1 0-.1-.1v-.1c.4-.2 1.9-.5 3.5-.5.9 0 4.2 0 4.2 2.2 0 1.1-.7 1.5-1.3 1.5zm5.3 3.2l.1-.3.1-.3c.1-.2.2-1.1.2-1.9 0-2.3-.3-3.3-1.5-3.4-.1 0-.2-.1-.2-.1 0-.4 1-1.1 1.3-1.1.8 0 2 .7 2.3.8.4.2.5.5.5.7 0 .3-.1.6-.2.9-.1.2-.1.4-.1.6v4.4c0 .3.1 1 .1 1.4 0 .5-.2.9-.3 1.1-.2.1-.4.4-.8.4-1.2 0-1.6-3-1.6-3.1l.1-.1zm8.1-5c-.1.7-.2 3.3-.3 4.2 0 .6 0 1.7-.1 2.3-1 7.1-8.4 8.3-8.4 8.3-.2 0 0-.2.4-.4 2.3-1.2 4.7-3.4 5.5-7.6.1-.4.3-2.9.3-5.1 0-2.6-.1-3.4-1.1-3.5-.1 0-.2 0-.2-.1 0-.2.9-1.2 1.5-1.2.4 0 2.8.8 2.8 1.6v.2c-.1.3-.2.6-.4 1v.3zm15.4 4.9c1.6 0 4 .2 4 1.1 0 .7-1.9 1.1-2.9 1.1h-2.9c-2.2 0-4.3.1-6.2.3-.6.1-1.2.4-1.8.4-1.1 0-3.2-1.7-3.2-2.8 0-.2 0-.3.1-.4l.2-.3c0-.1.1-.1.1-.1s.1 0 .1.1c0 0 .1.1.1.2.3.7 2.6.8 3.5.8 3.3-.1 6.2-.4 8.8-.4h.1zM60.4 1.1H41.8v95.3h16V79.1h1.9c14.1 0 19.3-5.8 19.3-20.5V18.3C78.9 6.4 73.2 1.1 60.4 1.1zm2.7 59.5c0 .5 0 1-.1 1.4v4.6c0 4.1-1.1 5.3-4.3 5.3h-1V8.1h.7c3.7 0 4.7 1.2 4.7 5.4v3.6c0 .5.1.9.1 1.5v42h-.1zm40.5-59.5L99.7 29 95.2 1.1h-16l12.1 59.2v36.1h15.9V60.2L119.6 1h-16z"/><path d="M132.7 54.6l14.5-14.5 4.9 4.9-14.5 14.5L152.1 74l-4.9 4.9-14.5-14.5-14.5 14.5-4.9-4.9 14.5-14.5L113.2 45l4.9-4.9 14.6 14.5zM299.6 1.1h-16v95.3h16V1.1zm20.6 0h-16v95.3H334v-7.2h-13.8V1.1zm29.9 0L346.2 29l-4.5-27.9h-16l12.1 59.2v36.1h15.9V60.2L366.1 1h-16zm-95.9 33.1l-5.1-33.1h-20.5v94.2L215.5 1.1h-17.6L191.8 45H172l.2-36.5H193V1.1L156.1.9l-.5 95.3 16 .1.2-44h18.8l-6.2 44.4h16l2.1-13.2.5-4.6h7.4l2.3 17.8h29.1V49.1l6.4 47.5h11.9l6.4-47.5v47.5h13.3V1.1h-20.6l-5 33.1zM204 71.6l.8-7.1 1.8-11.2 1.6 9.8.2 1.5.8 4.9.2 1.6.1.7-5.5-.2zM37.2 34.5V19.1C37.2 6.8 30.6 0 18.6 0 6.6 0 0 7 0 18.7v9.9c0 4.4.2 8.6 4.1 13.9l14.4 19.2c1.8 2.4 2.8 4.5 2.8 7.6v17.6c0 1.5-1.2 2.7-2.7 2.7-1.5 0-2.7-1.2-2.7-2.7V60.2H0V78c0 13.2 6.4 19.8 18.6 19.8 12.2 0 18.6-6.5 18.6-18.5v-11c0-5.9 0-10.5-4-15.6L17.9 32.8c-1.4-2-2-3.9-2-6.7V11c0-1.5 1.2-2.7 2.7-2.7 1.5 0 2.7 1.2 2.7 2.7v23.6l15.9-.1zm381 1.2v8.1h7.3v53.8h10.3V43.8h7.3v-8.1h-24.9zm43.3 0v28.4h-4.9V35.7h-10.3v61.9h10.3V72.3h4.9v25.3h10.3V35.7h-10.3zm-51.2-2.3c-2.9-5.1-7.5-7.7-13.6-7.7-1.8 0-3.4.3-4.8 1-1.6.8-2.9 1.8-4.1 3V8.4H413l.1-7.5h-40.5v51.5h15.2v-3.9c0-1.9.4-3.7 1.3-5.4.9-1.8 2.3-2.6 4.3-2.6 1.3 0 2.3.4 3 1.1 1.7 1.8 2.5 4 2.5 6.7v25.2c0 6-2.2 8.8-7.1 8.8-.7 0-1.3-.2-1.9-.5-2.2-1.2-3.4-3.6-3.7-7.3l-.3-3.2h-14.7v3.4c0 7 1.9 13 5.7 17.9 4 5.2 9.1 7.8 15.1 7.8s11.4-2.5 15.5-7.4c4.2-5.1 6.4-11.6 6.4-19.4V51.4c.1-7.7-1.2-13.7-3.6-18zM255 109.6l-2.1 7.6c-.4 1.4 0 1.7.7 2.1.4.2.7.3.7.7 0 .6-.7.6-1.2.6h-2.6c-.4 0-1.3 0-1.3-.7 0-.5.4-.5.9-.8.5-.2 1.1-.8 1.5-2.3l2.7-9.8h.1l.6 2.6zm2.4 6.8h-3.3l.3-1.3h2.7l-2.3-9.9.3-1.2h4.9l3.4 14.1c.1.6.2 1.1.8 1.3.3.1.6.3.6.7 0 .6-.8.6-1.2.6H258c-.4 0-1.1 0-1.1-.6 0-.4.1-.5.4-.6.6-.3.7-.5.5-1.4l-.4-1.7zm15.5-8.2l1.3 2.2v6.8c.4 2.8 1.8 1.9 1.8 2.9 0 .7-.9.6-1.2.6h-2.5c-.2 0-1.2 0-1.2-.6 0-1 1.4-.1 1.8-2.9v-9zm11.7 7.1v5.4h-3.3l-8.2-14.1c-.4-.6-.5-1-1.2-1.2-.4-.1-.7-.2-.7-.7 0-.7.7-.7 1.1-.7h5.8l6.5 11.3zm-1.3-7.3c0-3.2-1.8-2.3-1.8-3.4 0-.6.7-.7 1-.7h3c.2 0 1 0 1 .7 0 1-1.8.2-1.8 3.4v5.4l-1.3-2.3V108zm11.9.2l1.3 2.2v6.8c.4 2.8 1.8 1.9 1.8 2.9 0 .7-.9.6-1.2.6h-2.5c-.2 0-1.2 0-1.2-.6 0-1 1.4-.1 1.8-2.9v-9zm11.6 7.1v5.4h-3.3l-8.2-14.1c-.4-.6-.5-1-1.2-1.2-.4-.1-.7-.2-.7-.7 0-.7.7-.7 1.1-.7h5.8l6.5 11.3zm-1.3-7.3c0-3.2-1.8-2.3-1.8-3.4 0-.6.7-.7 1-.7h3c.2 0 1 0 1 .7 0 1-1.8.2-1.8 3.4v5.4l-1.3-2.3V108zm17.1 10.2c0 .8 0 1 .8 1.2.3.1.5.3.5.6 0 .6-.7.7-.8.7h-6.3c-.1 0-.8 0-.8-.7 0-.3.2-.5.5-.6.8-.2.8-.4.8-1.2v-11.7c0-.8 0-1-.8-1.2-.3-.1-.5-.3-.5-.6 0-.6.7-.7.8-.7h6.3c.1 0 .8 0 .8.7 0 .3-.2.5-.5.6-.8.2-.8.4-.8 1.2v11.7zm16.7 2.5H336l-4.3-14.4c-.2-.6-.1-.7-.7-1-.3-.1-.4-.3-.4-.6 0-.7.9-.7 1.5-.7h4.9c.5 0 1.6-.1 1.6.7 0 .9-1 .5-1 1.4 0 .3 0 .4.1.6l2.8 9.7-1.2 4.3zm.9-8.3l1.3-4.9c.1-.4.2-.5.2-.9 0-.6-.3-1-.9-1.2-.4-.1-.7-.3-.7-.7 0-.7.8-.7 1.3-.7h2.5c.5 0 1.3-.1 1.3.6 0 .5-.3.6-.7.7-.6.3-.8.4-1.1.9-.3.5-.5 1-.6 1.5l-1.9 7-.7-2.3zm12.2-8.4h5.9v16.7h-5.9c-.1 0-.8 0-.8-.7 0-.3.2-.5.5-.6.8-.2.8-.4.8-1.2v-11.7c0-.8 0-1-.8-1.2-.3-.1-.5-.3-.5-.6 0-.7.7-.7.8-.7zm6.9 0h5v4.5c0 .1 0 .5-.7.5-.4 0-.5-.2-.6-.6-.6-1.8-1.7-2.9-3.7-3.2V104zm0 7.5c.9-.2 1.4-1.1 1.6-2 .1-.4.2-.7.7-.7.7 0 .6.8.6 1v4.8c0 .2.1 1-.6 1-.5 0-.6-.4-.7-.7-.2-.8-.6-1.7-1.6-2v-1.4zm0 7.9c1.8-.2 3.2-1.5 3.8-3.2.2-.3.3-.7.7-.7.7 0 .6.7.6.8v4.5h-5.1v-1.4zm13.9-12.9c0-.8 0-1-.8-1.2-.3-.1-.5-.3-.5-.6 0-.6.7-.7.8-.7h5.9v14.2c0 .8 0 1 .8 1.2.3.1.5.3.5.6 0 .6-.7.7-.8.7h-6.3c-.1 0-.8 0-.8-.7 0-.3.2-.5.5-.6.8-.2.8-.4.8-1.2l-.1-11.7zm6.5-2.5h.1c1.5 0 3 0 4.3.6 1.5.7 2.3 2 2.3 3.7 0 2.6-1.7 3.7-3.9 4.2 2 .3 3.9.9 3.9 3.2v2c0 .2-.1.6.2.6.4 0 .4-.6 1-.6.3 0 .6.3.6.6 0 .6-.7 1.5-1.2 1.9-.8.6-1.6.8-2.5.8-1 0-1.8-.2-2.5-.9-.8-.8-.9-1.8-.9-2.8v-1.5c0-1 0-2.3-1.4-2.4V112c1.2-.1 1.4-.8 1.4-2v-2.7c0-1.1-.2-1.7-1.4-2.1V104zm20.7.9c-.9.3-1.6.9-1.6 1.8 0 1.1.6 1.8 3.3 2.8 4 1.5 4.9 3.6 4.9 5.7 0 3.5-2.9 5.7-6.2 5.8v-1.3c1.1-.3 2-.8 2-2.1 0-1.4-1.6-2-2.7-2.5-2.8-1.2-5.4-2.5-5.4-6s2.5-5.5 5.8-5.6l-.1 1.4zm-5.7 10.8c0-.5.1-1.1.7-1.1.4 0 .8.4.8.7.3 1.8 1.6 4 3.5 4.4v1.3c-2 0-2.4-.8-3.2-.8-.7 0-.6.7-1.2.7-.7 0-.7-.8-.7-.9l.1-4.3zm11.6-7.2c0 .5-.1 1.1-.7 1.1-.5 0-.7-.4-.8-.9-.2-1.7-1.6-3.4-3.4-3.7v-1.3c1.4 0 2.9.9 3.2.9.6 0 .5-.8 1.1-.8.7 0 .6.8.6.9v3.8zm12.5 1.1l-2.1 7.6c-.4 1.4 0 1.7.7 2.1.4.2.7.3.7.7 0 .6-.7.6-1.2.6h-2.6c-.4 0-1.3 0-1.3-.7 0-.5.4-.5.9-.8.5-.2 1.1-.8 1.5-2.3l2.7-9.8h.1l.6 2.6zm2.4 6.8h-3.3l.3-1.3h2.7l-2.3-9.9.3-1.2h4.9l3.4 14.1c.1.6.2 1.1.8 1.3.3.1.6.3.6.7 0 .6-.8.6-1.2.6h-5.6c-.4 0-1.1 0-1.1-.6 0-.4.1-.5.4-.6.6-.3.7-.5.5-1.4l-.4-1.7zm15.3-9.9c0-.8 0-1-.8-1.2-.3-.1-.5-.3-.5-.6 0-.6.7-.7.8-.7h5.9v14.2c0 .8 0 1 .8 1.2.3.1.5.3.5.6 0 .6-.7.7-.8.7h-6.3c-.1 0-.8 0-.8-.7 0-.3.2-.5.5-.6.8-.2.8-.4.8-1.2l-.1-11.7zm6.5-2.5h.1c1.5 0 3 0 4.3.6 1.5.7 2.3 2 2.3 3.7 0 2.6-1.7 3.7-3.9 4.2 2 .3 3.9.9 3.9 3.2v2c0 .2-.1.6.2.6.4 0 .4-.6 1-.6.3 0 .6.3.6.6 0 .6-.7 1.5-1.2 1.9-.8.6-1.6.8-2.5.8-1 0-1.8-.2-2.5-.9-.8-.8-.9-1.8-.9-2.8v-1.5c0-1 0-2.3-1.4-2.4V112c1.2-.1 1.4-.8 1.4-2v-2.7c0-1.1-.2-1.7-1.4-2.1V104zm18.7 10.2l-3.4-8c-.2-.4-.3-.7-.6-.9-.3-.2-.5-.3-.5-.6 0-.7.7-.6 1.2-.6h5.5c.5 0 1.2 0 1.2.7 0 .3-.2.5-.5.7-.2.1-.4.2-.4.5s.1.6.2.8l2.8 6.3v5.2c0 .8 0 1 .8 1.2.3.1.5.3.5.6 0 .6-.7.7-.8.7h-6.3c-.1 0-.8 0-.8-.7 0-.3.2-.5.5-.6.8-.2.8-.4.8-1.2v-4.1zm5.2-4l1.2-2.6c.2-.4.3-.7.3-1.2 0-1.3-1.5-.8-1.5-1.8 0-.8.9-.7 1.5-.7h2.5c.5 0 1.1 0 1.1.7 0 .4-.2.5-.6.7-.9.4-1.2.7-1.6 1.6l-2.2 4.8-.7-1.5z"/></g></svg>